<?xml version="1.0" standalone="no"?>
<!DOCTYPE svg PUBLIC "-//W3C//DTD SVG 20010904//EN"
 "http://www.w3.org/TR/2001/REC-SVG-20010904/DTD/svg10.dtd">
<svg version="1.0" xmlns="http://www.w3.org/2000/svg"
 width="147.000000pt" height="171.000000pt" viewBox="0 0 147.000000 171.000000"
 preserveAspectRatio="xMidYMid meet">
<metadata>
Created by potrace 1.15, written by Peter Selinger 2001-2017
</metadata>
<g transform="translate(0.000000,171.000000) scale(0.100000,-0.100000)"
fill="#000000" stroke="none">
<path d="M580 1691 c-143 -40 -274 -107 -462 -238 -58 -41 -108 -83 -111 -93
-6 -22 18 -60 38 -60 8 0 78 44 157 97 235 159 396 225 549 225 165 1 304 -57
549 -231 l90 -63 0 -309 0 -309 -27 -6 c-136 -30 -248 -90 -344 -186 l-67 -67
-67 -200 c-36 -110 -65 -211 -63 -223 2 -17 10 -24 34 -26 17 -2 35 3 41 10 6
7 38 97 72 199 l62 187 68 66 c76 73 177 128 270 147 31 6 66 15 79 20 l22 9
0 370 0 370 -92 68 c-181 134 -332 215 -459 246 -89 22 -254 20 -339 -3z"/>
<path d="M12 718 c-7 -7 -12 -24 -12 -38 0 -22 8 -31 43 -46 73 -33 213 -132
262 -186 59 -66 117 -188 145 -303 31 -131 34 -137 73 -133 l32 3 -2 55 c-1
30 -13 95 -28 145 -64 225 -169 353 -385 469 -90 48 -109 53 -128 34z"/>
</g>
</svg>
