<?xml version="1.0" standalone="no"?>
<!DOCTYPE svg PUBLIC "-//W3C//DTD SVG 20010904//EN"
 "http://www.w3.org/TR/2001/REC-SVG-20010904/DTD/svg10.dtd">
<svg version="1.0" xmlns="http://www.w3.org/2000/svg"
 width="146.000000pt" height="171.000000pt" viewBox="0 0 146.000000 171.000000"
 preserveAspectRatio="xMidYMid meet">
<metadata>
Created by potrace 1.15, written by Peter Selinger 2001-2017
</metadata>
<g transform="translate(0.000000,171.000000) scale(0.100000,-0.100000)"
fill="#000000" stroke="none">
<path d="M570 1691 c-146 -41 -293 -117 -477 -248 l-93 -67 0 -343 c0 -386 -8
-350 85 -372 124 -31 258 -125 323 -229 16 -26 58 -131 92 -235 55 -166 64
-188 86 -193 29 -8 54 11 54 40 0 11 -28 104 -61 206 -68 202 -96 254 -187
345 -62 62 -200 138 -271 150 l-41 7 2 286 3 286 115 79 c133 91 306 179 400
202 36 10 101 17 145 17 168 0 305 -59 558 -240 l77 -55 0 -308 0 -309 -27 -6
c-135 -29 -246 -90 -343 -186 l-68 -67 -67 -200 c-36 -110 -65 -211 -63 -223
2 -17 10 -24 34 -26 17 -2 35 3 41 10 6 7 38 97 72 199 l62 187 68 66 c76 73
177 128 270 147 31 6 66 15 79 20 l22 9 0 370 0 370 -92 68 c-181 134 -332
215 -459 246 -89 22 -254 20 -339 -3z"/>
</g>
</svg>
